<svg width="22" height="22" viewBox="0 0 22 22" fill="none" xmlns="http://www.w3.org/2000/svg">
<path fill-rule="evenodd" clip-rule="evenodd" d="M5.75297 7.93085C5.91055 7.77923 6.12189 7.69639 6.34052 7.70051C6.55916 7.70464 6.76722 7.7954 6.91897 7.95285L11 12.2846L15.081 7.95285C15.1552 7.87107 15.245 7.80501 15.3452 7.75859C15.4453 7.71217 15.5538 7.68633 15.6642 7.6826C15.7745 7.67887 15.8845 7.69733 15.9876 7.73688C16.0907 7.77644 16.1848 7.83628 16.2643 7.91286C16.3438 7.98945 16.4072 8.08122 16.4506 8.18274C16.494 8.28426 16.5166 8.39345 16.517 8.50386C16.5175 8.61427 16.4957 8.72365 16.4531 8.82551C16.4105 8.92736 16.3479 9.01963 16.269 9.09685L11.594 14.0468C11.517 14.1267 11.4247 14.1902 11.3227 14.2336C11.2206 14.277 11.1109 14.2993 11 14.2993C10.8891 14.2993 10.7793 14.277 10.6773 14.2336C10.5752 14.1902 10.4829 14.1267 10.406 14.0468L5.73097 9.09685C5.57936 8.93926 5.49651 8.72793 5.50064 8.50929C5.50476 8.29065 5.59552 8.0826 5.75297 7.93085Z" fill="currentColor"/>
</svg>
