<svg width="16" height="18" viewBox="0 0 16 18" fill="none" xmlns="http://www.w3.org/2000/svg">
<g clip-path="url(#clip0_3_1660)">
<path d="M0.330566 8.20566C-0.108887 8.64512 -0.108887 9.35879 0.330566 9.79824L5.95557 15.4232C6.39502 15.8627 7.10869 15.8627 7.54814 15.4232C7.9876 14.9838 7.9876 14.2701 7.54814 13.8307L3.83916 10.1252H14.6251C15.2474 10.1252 15.7501 9.62246 15.7501 9.0002C15.7501 8.37793 15.2474 7.8752 14.6251 7.8752H3.84268L7.54463 4.16973C7.98408 3.73027 7.98408 3.0166 7.54463 2.57715C7.10518 2.1377 6.3915 2.1377 5.95205 2.57715L0.327051 8.20215L0.330566 8.20566Z" fill="currentColor"/>
</g>
<defs>
<clipPath id="clip0_3_1660">
<path d="M0 0H15.75V18H0V0Z" fill="white"/>
</clipPath>
</defs>
</svg>
