<svg width="21" height="18" viewBox="0 0 21 18" fill="none" xmlns="http://www.w3.org/2000/svg">
<g clip-path="url(#clip0_2014_279)">
<path d="M2.25 2.25C1.00898 2.25 0 3.25898 0 4.5V6.75C0 7.05938 0.260156 7.30195 0.551953 7.40391C1.21289 7.63242 1.6875 8.26172 1.6875 9C1.6875 9.73828 1.21289 10.3676 0.551953 10.5961C0.260156 10.698 0 10.9406 0 11.25V13.5C0 14.741 1.00898 15.75 2.25 15.75H18C19.241 15.75 20.25 14.741 20.25 13.5V11.25C20.25 10.9406 19.9898 10.698 19.698 10.5961C19.0371 10.3676 18.5625 9.73828 18.5625 9C18.5625 8.26172 19.0371 7.63242 19.698 7.40391C19.9898 7.30195 20.25 7.05938 20.25 6.75V4.5C20.25 3.25898 19.241 2.25 18 2.25H2.25ZM4.5 6.1875V11.8125C4.5 12.1219 4.75312 12.375 5.0625 12.375H15.1875C15.4969 12.375 15.75 12.1219 15.75 11.8125V6.1875C15.75 5.87812 15.4969 5.625 15.1875 5.625H5.0625C4.75312 5.625 4.5 5.87812 4.5 6.1875ZM3.375 5.625C3.375 5.00273 3.87773 4.5 4.5 4.5H15.75C16.3723 4.5 16.875 5.00273 16.875 5.625V12.375C16.875 12.9973 16.3723 13.5 15.75 13.5H4.5C3.87773 13.5 3.375 12.9973 3.375 12.375V5.625Z" fill="#8F909B"/>
</g>
<defs>
<clipPath id="clip0_2014_279">
<path d="M0 0H20.25V18H0V0Z" fill="white"/>
</clipPath>
</defs>
</svg>
