<svg width="18" height="18" viewBox="0 0 18 18" fill="none" xmlns="http://www.w3.org/2000/svg">
<g clip-path="url(#clip0_12_1189)">
<path d="M3.375 0C2.13398 0 1.125 1.00898 1.125 2.25V15.75C1.125 16.991 2.13398 18 3.375 18H13.5C14.741 18 15.75 16.991 15.75 15.75V2.25C15.75 1.00898 14.741 0 13.5 0H3.375ZM7.3125 10.125H9.5625C11.1164 10.125 12.375 11.3836 12.375 12.9375C12.375 13.2469 12.1219 13.5 11.8125 13.5H5.0625C4.75312 13.5 4.5 13.2469 4.5 12.9375C4.5 11.3836 5.75859 10.125 7.3125 10.125ZM6.1875 6.75C6.1875 6.15326 6.42455 5.58097 6.84651 5.15901C7.26847 4.73705 7.84076 4.5 8.4375 4.5C9.03424 4.5 9.60653 4.73705 10.0285 5.15901C10.4504 5.58097 10.6875 6.15326 10.6875 6.75C10.6875 7.34674 10.4504 7.91903 10.0285 8.34099C9.60653 8.76295 9.03424 9 8.4375 9C7.84076 9 7.26847 8.76295 6.84651 8.34099C6.42455 7.91903 6.1875 7.34674 6.1875 6.75ZM18 2.8125C18 2.50312 17.7469 2.25 17.4375 2.25C17.1281 2.25 16.875 2.50312 16.875 2.8125V5.0625C16.875 5.37187 17.1281 5.625 17.4375 5.625C17.7469 5.625 18 5.37187 18 5.0625V2.8125ZM17.4375 6.75C17.1281 6.75 16.875 7.00313 16.875 7.3125V9.5625C16.875 9.87187 17.1281 10.125 17.4375 10.125C17.7469 10.125 18 9.87187 18 9.5625V7.3125C18 7.00313 17.7469 6.75 17.4375 6.75ZM18 11.8125C18 11.5031 17.7469 11.25 17.4375 11.25C17.1281 11.25 16.875 11.5031 16.875 11.8125V14.0625C16.875 14.3719 17.1281 14.625 17.4375 14.625C17.7469 14.625 18 14.3719 18 14.0625V11.8125Z" fill="currentColor"/>
</g>
<defs>
<clipPath id="clip0_12_1189">
<rect width="18" height="18" fill="white"/>
</clipPath>
</defs>
</svg>
