<svg width="21" height="24" viewBox="0 0 21 24" fill="none" xmlns="http://www.w3.org/2000/svg">
<g clip-path="url(#clip0_15_102)">
<path d="M10.5047 6.60937C7.52344 6.60937 5.11875 9.01406 5.11875 11.9953C5.11875 14.9766 7.52344 17.3812 10.5047 17.3812C13.4859 17.3812 15.8906 14.9766 15.8906 11.9953C15.8906 9.01406 13.4859 6.60937 10.5047 6.60937ZM10.5047 15.4969C8.57813 15.4969 7.00313 13.9266 7.00313 11.9953C7.00313 10.0641 8.57344 8.49374 10.5047 8.49374C12.4359 8.49374 14.0063 10.0641 14.0063 11.9953C14.0063 13.9266 12.4313 15.4969 10.5047 15.4969ZM17.3672 6.38906C17.3672 7.08749 16.8047 7.64531 16.1109 7.64531C15.4125 7.64531 14.8547 7.08281 14.8547 6.38906C14.8547 5.69531 15.4172 5.13281 16.1109 5.13281C16.8047 5.13281 17.3672 5.69531 17.3672 6.38906ZM20.9344 7.66406C20.8547 5.98124 20.4703 4.49062 19.2375 3.26249C18.0094 2.03437 16.5188 1.64999 14.8359 1.56562C13.1016 1.46718 7.90313 1.46718 6.16875 1.56562C4.49063 1.64531 3 2.02968 1.76719 3.25781C0.534375 4.48593 0.154688 5.97656 0.0703129 7.65937C-0.0281246 9.39374 -0.0281246 14.5922 0.0703129 16.3266C0.15 18.0094 0.534375 19.5 1.76719 20.7281C3 21.9562 4.48594 22.3406 6.16875 22.425C7.90313 22.5234 13.1016 22.5234 14.8359 22.425C16.5188 22.3453 18.0094 21.9609 19.2375 20.7281C20.4656 19.5 20.85 18.0094 20.9344 16.3266C21.0328 14.5922 21.0328 9.39843 20.9344 7.66406ZM18.6938 18.1875C18.3281 19.1062 17.6203 19.8141 16.6969 20.1844C15.3141 20.7328 12.0328 20.6062 10.5047 20.6062C8.97656 20.6062 5.69063 20.7281 4.3125 20.1844C3.39375 19.8187 2.68594 19.1109 2.31563 18.1875C1.76719 16.8047 1.89375 13.5234 1.89375 11.9953C1.89375 10.4672 1.77188 7.18124 2.31563 5.80312C2.68125 4.88437 3.38906 4.17656 4.3125 3.80624C5.69531 3.25781 8.97656 3.38437 10.5047 3.38437C12.0328 3.38437 15.3188 3.26249 16.6969 3.80624C17.6156 4.17187 18.3234 4.87968 18.6938 5.80312C19.2422 7.18593 19.1156 10.4672 19.1156 11.9953C19.1156 13.5234 19.2422 16.8094 18.6938 18.1875Z" fill="#A9CEFF"/>
</g>
<defs>
<clipPath id="clip0_15_102">
<path d="M0 0H21V24H0V0Z" fill="white"/>
</clipPath>
</defs>
</svg>
