<svg width="18" height="18" viewBox="0 0 18 18" fill="none" xmlns="http://www.w3.org/2000/svg">
<path d="M9 0C11.3869 0 13.6764 0.947915 15.3643 2.63574C17.0521 4.32357 18 6.61305 18 9C18 11.3869 17.0521 13.6764 15.3643 15.3643C13.6764 17.0521 11.3869 18 9 18C6.61305 18 4.32357 17.0521 2.63574 15.3643C0.947915 13.6764 0 11.3869 0 9C0 6.61305 0.947915 4.32357 2.63574 2.63574C4.32357 0.947915 6.61305 0 9 0ZM9.34375 11.8301C8.95997 11.8301 8.63225 11.9581 8.36035 12.2139C8.10436 12.4699 7.97559 12.774 7.97559 13.126C7.97559 13.462 8.10435 13.7502 8.36035 13.9902C8.63224 14.23 8.96 14.3496 9.34375 14.3496C9.69575 14.3496 9.99242 14.2302 10.2324 13.9902C10.4883 13.7503 10.6162 13.4619 10.6162 13.126C10.6162 12.7741 10.4883 12.4698 10.2324 12.2139C9.99242 11.9579 9.69575 11.8301 9.34375 11.8301ZM9.2959 3.5498C8.71995 3.54981 8.19188 3.66177 7.71191 3.88574C7.24796 4.10972 6.87197 4.41391 6.58398 4.79785C6.31198 5.18185 6.17578 5.60631 6.17578 6.07031C6.17586 6.31019 6.27195 6.53428 6.46387 6.74219C6.67177 6.93407 6.91176 7.03019 7.18359 7.03027C7.45559 7.03027 7.68788 6.94163 7.87988 6.76562C8.08764 6.58978 8.1997 6.39821 8.21582 6.19043C8.23182 5.91843 8.33632 5.71784 8.52832 5.58984C8.72018 5.44608 8.96786 5.37409 9.27148 5.37402C9.60748 5.37402 9.87989 5.45426 10.0879 5.61426C10.2957 5.7582 10.4003 5.98984 10.4004 6.30957C10.4004 6.82157 10.072 7.32627 9.41602 7.82227C9.12812 8.03019 8.8322 8.28599 8.52832 8.58984C8.22432 8.87784 8.07227 9.26219 8.07227 9.74219V10.1982C8.07232 10.4861 8.16841 10.7176 8.36035 10.8936C8.55235 11.0535 8.79209 11.1338 9.08008 11.1338C9.38401 11.1338 9.62383 11.0535 9.7998 10.8936C9.97565 10.7176 10.0634 10.486 10.0635 10.1982V9.74219C10.0635 9.63026 10.128 9.50229 10.2559 9.3584C10.3999 9.2144 10.6321 9.02966 10.9521 8.80566C11.352 8.51772 11.6964 8.19017 11.9844 7.82227C12.2724 7.45426 12.416 6.89357 12.416 6.1416C12.4159 5.37378 12.1202 4.74945 11.5283 4.26953C10.9363 3.78953 10.1919 3.5498 9.2959 3.5498Z" fill="currentColor"/>
</svg>
