<svg width="20" height="20" viewBox="0 0 20 20" fill="none" xmlns="http://www.w3.org/2000/svg">
<g clip-path="url(#clip0_2014_267)">
<path d="M19.4961 0.24625C19.8125 0.480625 20 0.855625 20 1.25016V4.06266V14.3752C20 16.1017 18.3203 17.5002 16.25 17.5002C14.1797 17.5002 12.5 16.1017 12.5 14.3752C12.5 12.6486 14.1797 11.2502 16.25 11.2502C16.6875 11.2502 17.1094 11.3127 17.5 11.4298V5.74234L7.5 8.74234V16.8752C7.5 18.6017 5.82031 20.0002 3.75 20.0002C1.67969 20.0002 0 18.6017 0 16.8752C0 15.1486 1.67969 13.7502 3.75 13.7502C4.1875 13.7502 4.60938 13.8127 5 13.9298V7.81266V5.00016C5 4.44938 5.36328 3.96109 5.89063 3.80094L18.3906 0.0509377C18.7695 -0.0623436 19.1797 0.00796892 19.4961 0.24625Z" fill="currentColor"/>
</g>
<defs>
<clipPath id="clip0_2014_267">
<path d="M0 0H20V20H0V0Z" fill="white"/>
</clipPath>
</defs>
</svg>
