<svg width="16" height="18" viewBox="0 0 16 18" fill="none" xmlns="http://www.w3.org/2000/svg">
<g clip-path="url(#clip0_12_1198)">
<path d="M12.375 7.875C14.2383 7.875 15.75 6.36328 15.75 4.5C15.75 2.63672 14.2383 1.125 12.375 1.125C10.5117 1.125 9 2.63672 9 4.5C9 4.64062 9.00703 4.78125 9.02461 4.91836L5.71641 6.5707C5.11172 5.98359 4.28555 5.625 3.375 5.625C1.51172 5.625 0 7.13672 0 9C0 10.8633 1.51172 12.375 3.375 12.375C4.28555 12.375 5.11172 12.0164 5.71641 11.4293L9.02461 13.0816C9.00703 13.2188 9 13.3559 9 13.5C9 15.3633 10.5117 16.875 12.375 16.875C14.2383 16.875 15.75 15.3633 15.75 13.5C15.75 11.6367 14.2383 10.125 12.375 10.125C11.4645 10.125 10.6383 10.4836 10.0336 11.0707L6.72539 9.41836C6.74297 9.28125 6.75 9.14414 6.75 9C6.75 8.85586 6.74297 8.71875 6.72539 8.58164L10.0336 6.9293C10.6383 7.51641 11.4645 7.875 12.375 7.875Z" fill="currentColor"/>
</g>
<defs>
<clipPath id="clip0_12_1198">
<path d="M0 0H15.75V18H0V0Z" fill="white"/>
</clipPath>
</defs>
</svg>
